<?xml version="1.0" standalone="no"?>
<!DOCTYPE svg PUBLIC "-//W3C//DTD SVG 20010904//EN"
 "http://www.w3.org/TR/2001/REC-SVG-20010904/DTD/svg10.dtd">
<svg version="1.0" xmlns="http://www.w3.org/2000/svg"
 width="360.000000pt" height="360.000000pt" viewBox="0 0 360.000000 360.000000"
 preserveAspectRatio="xMidYMid meet">
<metadata>
Created by potrace 1.14, written by Peter Selinger 2001-2017
</metadata>
<g transform="translate(0.000000,360.000000) scale(0.100000,-0.100000)"
fill="#000000" stroke="none">
<path d="M1575 3494 c-159 -24 -191 -32 -320 -75 -242 -82 -470 -226 -659
-415 -78 -77 -128 -139 -201 -249 -125 -186 -204 -377 -252 -604 -22 -107 -26
-153 -27 -306 -1 -222 5 -275 49 -449 121 -465 427 -849 856 -1074 135 -71
315 -135 434 -157 17 -3 42 -7 56 -10 144 -27 437 -28 574 -1 117 22 118 23
213 51 253 78 502 228 691 416 167 166 278 335 384 579 35 82 82 259 103 395
16 103 9 441 -11 515 -2 8 -7 31 -10 50 -9 54 -23 107 -56 205 -175 521 -615
937 -1149 1084 -90 24 -102 27 -255 50 -85 13 -325 10 -420 -5z"/>
</g>
</svg>
